<svg version="1" xmlns="http://www.w3.org/2000/svg" width="933.333" height="933.333" viewBox="0 0 700.000000 700.000000"><path d="M327 94.5c-12.3 12.3-22.1 22.8-21.7 23.2.4.4 26.5 26.6 57.9 58.1l57.2 57.2-28.7 28.8-28.7 28.7 22.8 22.8 22.7 22.7 51.5-51.5 51.5-51.5-80.7-80.5C386.4 108.2 350 72 349.8 72c-.2 0-10.4 10.1-22.8 22.5z"/><path d="M241.2 180C213 208.2 190 231.5 190 231.9c0 .3 36.1 36.7 80.3 80.9l80.4 80.3 22.7-22.7 22.8-22.7-58-58.1-58-58.1 28.3-28c15.6-15.4 28.4-28.5 28.4-29 .1-.6-9.9-11.1-22.2-23.3l-22.3-22.3-51.2 51.1z"/><path d="M325.4 207.1l-25.1 25.1 25 24.9c13.7 13.7 25.1 24.9 25.4 24.9.3 0 11.7-11.2 25.4-24.9l24.9-24.9-25.1-25.1c-13.8-13.8-25.2-25.1-25.3-25.1-.1 0-11.5 11.3-25.2 25.1zM216.9 393.2c-22.3 2.9-35.9 19.6-36.1 44.3 0 9.9.4 13.2 2.8 20.3 2.3 6.8 3.7 9.1 8.6 14.3 12.9 13.8 39.7 16.6 60.1 6.3 2.6-1.4 5-3.1 5.4-4 .3-.8.6-9.5.7-19.4.1-17.1 0-17.9-1.9-18.2-1.7-.3-24.3-.2-28.5.1-1 .1-1.4 1.1-1.3 3.3.1 1.8.2 4 .2 4.8.1 1.3 1.7 1.6 9.2 1.5 7.2-.1 9.2.2 9.7 1.5.4.8.7 6.2.6 12v10.5l-5 1.9c-3 1.1-8.3 2-13.4 2.1-23.3.9-35.1-11.7-34.5-37 .3-14.3 4.8-24.6 13-30 5.2-3.3 10.2-4.6 18.4-4.7 10.4-.1 17.8 2 25.8 7.4 2.3 1.5 4.4 2.8 4.7 2.8.4 0 .5-2.7.5-6-.2-5.6-.3-6.1-3.5-7.9-8.5-5.1-23.3-7.5-35.5-5.9zM411.3 393.6c-7.6 1.5-10.9 3.2-15.4 8.1-4.3 4.5-6 9.3-6 16.6 0 13.8 7.4 20 29 24.7 10.6 2.2 17.7 5.9 19.2 9.8 1.8 4.6 1.7 8.9-.1 12.9-4.7 10.4-23.8 12.1-42.6 3.8l-5.4-2.4v6c0 5.6.2 6 2.7 7 12.4 4.7 31 5.7 41.8 2.3 13.7-4.3 20.4-17.4 16.4-31.9-2.7-9.8-9.4-14.3-28.1-18.9-14.6-3.6-16.9-4.5-19.2-7.8-2.1-3-2-10.3.1-13.9 5-8.5 22.6-9.8 38.7-3l4.4 1.9.1-5.8c.1-5.8 0-5.9-3.2-6.8-11.6-3.6-23.2-4.5-32.4-2.6zM471 438.5V483h54.8l.4-5 .3-5H483v-79h-12v44.5zM292.5 417.4c-11.4 5.3-16.6 14.7-17.1 30.6-.8 23.3 10 36.4 30.1 36.4 13.3 0 21.9-5.3 27.1-16.6 2.7-5.9 2.9-7.2 2.9-18.3 0-10.8-.3-12.5-2.6-17.5-3.1-6.6-7.3-11.1-13.1-14.2-6.5-3.4-20.5-3.6-27.3-.4zm22.4 9.6c4.3 3 6.7 6.8 8.3 13 3.8 14.4-1.5 30.4-11.1 34.2-3.8 1.5-10.6 1.1-14.5-.7-3.9-1.9-7.8-7.1-9.6-12.9-1.4-4.2-1.6-14.5-.5-19.7 1.7-7.7 7.3-14.7 13-16.2 3.9-1.1 11.5.1 14.4 2.3zM522.5 536.9c-.3.2-.5 21.1-.5 46.3V629h11v-46c0-25.3-.3-46-.7-46.1-4.4-.4-9.5-.4-9.8 0zM168.6 540.9c-.2.3-.3 20.1-.3 43.9 0 48.3-.6 45.1 7.1 44.5 2.1-.1 4.1-.5 4.4-.8.3-.2.6-8.7.6-18.7l.1-18.1h6.5c11.2 0 15.7 1.1 19.3 4.7 1.9 1.8 6.6 9.8 10.6 17.7 4 7.9 7.5 14.6 7.6 14.8.5.4 11.7.3 12.2-.2.2-.2-3.3-7.6-7.7-16.3-6.1-12.1-9.2-17-12.9-20.6l-4.8-4.7 2.6-.9c1.4-.5 4.1-2.4 5.9-4.3 8.4-8.6 7.2-28.2-2.2-35.4-6.3-4.8-10.8-5.7-30.4-6-10-.1-18.4 0-18.6.4zm35.4 10.9c8.2 3.3 11.3 12.9 6.9 21.9-3 6.3-6.2 7.6-19.4 8l-11.1.3-.1-15.9-.1-15.9 10.7.3c5.8.1 11.7.7 13.1 1.3zM400.8 543.8c-1.6.3-1.8 1.6-1.8 9.7 0 9.1-.1 9.4-2.2 9.3-5.5-.2-5.8 0-5.8 4.2v4h8v19.2c.1 10.6.3 21.1.6 23.3.8 5.7 3.6 10.7 7.2 12.8 3.5 2 15.3 3.5 21.8 2.7 4-.5 4-.6 4-4.5l-.1-4-8.5-.5c-9.5-.7-12.5-1.8-13.2-5.3-.3-1.3-.5-11.7-.6-23l-.2-20.6 11.3-.3 11.2-.3v-8h-22v-9.3c0-5-.2-9.2-.5-9.3-1.8-.3-7.8-.4-9.2-.1zM265 562.4c-13.4 3.6-21.9 15.6-22.5 31.8-.6 16.2 5.7 27.8 18.4 33.6 7.5 3.5 20.3 3.9 31 1.1 4-1 8-2.4 8.7-3 1.1-.9 1.2-8.4.1-9.5-.2-.2-3.2.8-6.8 2.2-11.4 4.6-26.6 3.6-33.1-2.3-3.1-2.8-5.9-9.1-6.1-13.6l-.2-4.1 24.5-.1h24.5l-.1-8c-.1-6.5-.6-9.1-2.8-13.7-6.2-13-20.1-18.6-35.6-14.4zm18.9 10.1c3.4 1.7 6.3 5.5 7.9 10.4 2.6 7.4 3.5 7.1-18.4 7.1h-19.6l.7-3.3c1.7-7.7 7-13.6 14.3-15.7 3.8-1.1 11.6-.3 15.1 1.5zM345.7 562.4c-4.2 1.6-10.6 6.1-11.4 8.2-1.1 2.8-1.9 1.3-1.7-3.1.2-2.9-.2-4.5-.9-4.6-5.9-.4-9.7-.4-9.8 0-.1.3-.2 15.2-.3 33-.1 36.2-.6 34 7.2 33.3l3.9-.4v-19.6c0-21.8.4-26.1 3.3-30.7 4.4-7.1 17.3-10.3 23.7-5.7 6 4.3 6.9 8.6 6.8 34.4V629h11l-.1-24.2c-.2-22.3-.3-24.8-2.3-30-2.2-5.8-6.2-10.1-11-12-4.3-1.7-14.3-1.9-18.4-.4zM456.5 563c-3.8 1-7.3 1.9-7.7 1.9-.3.1-.8 2.4-1 5.1-.3 5.6 0 5.8 5.8 3.4 8.7-3.6 21.1-3.8 27.1-.5 4.6 2.6 5.9 4.5 7.2 10.1l.9 4-10.2.1c-17.9.2-23.1 1.5-29.2 7.3-10.3 9.9-7.8 27.7 4.7 34.1 8.6 4.5 23.4 2.3 30.1-4.5 2.1-2.1 4-3.5 4.1-3.1.2.3.3 2.3.1 4.3l-.2 3.8h11.3l-.1-21.2c-.2-23.3-.5-27.1-3.3-33.2-5.2-11.9-21.2-16.5-39.6-11.6zm30.6 32.9c4.2.2-1.2 17.6-6.8 21.7-5.7 4.2-14.9 5.3-20.2 2.5-5.4-2.9-7.6-11.3-4.6-17.1 2.1-4.1 6.5-6.1 14.9-6.7 3.9-.3 7.2-.6 7.3-.7.1 0 1.9 0 4 .1s4.5.2 5.4.2z"/></svg>